<svg width="34" height="34" viewBox="0 0 34 34" fill="none" xmlns="http://www.w3.org/2000/svg">
<path d="M23.5548 11.1369L23.5548 20.6829C23.5548 20.8819 23.4758 21.0728 23.335 21.2135C23.1943 21.3542 23.0034 21.4333 22.8044 21.4333C22.6054 21.4333 22.4145 21.3542 22.2738 21.2135C22.1331 21.0728 22.054 20.8819 22.054 20.6829L22.0547 12.9473L11.6675 23.3345C11.5268 23.4752 11.3361 23.5542 11.1371 23.5542C10.9382 23.5542 10.7475 23.4752 10.6068 23.3345C10.4662 23.1939 10.3871 23.0031 10.3871 22.8042C10.3871 22.6053 10.4662 22.4145 10.6068 22.2739L20.994 11.8867L13.2585 11.8873C13.0594 11.8873 12.8686 11.8083 12.7278 11.6676C12.5871 11.5268 12.5081 11.336 12.5081 11.1369C12.5081 10.9379 12.5871 10.747 12.7278 10.6063C12.8686 10.4656 13.0594 10.3865 13.2585 10.3865L22.8044 10.3865C22.903 10.3865 23.0006 10.4058 23.0916 10.4435C23.1827 10.4812 23.2655 10.5365 23.3352 10.6062C23.4049 10.6759 23.4601 10.7586 23.4978 10.8497C23.5355 10.9408 23.5549 11.0384 23.5548 11.1369Z" fill="#7B7B7B"/>
</svg>
