<svg width="36" height="36" viewBox="0 0 36 36" fill="none" xmlns="http://www.w3.org/2000/svg">
<path d="M17.7188 0.400391C22.3104 0.405599 26.7122 2.23175 29.959 5.47852C33.2058 8.72529 35.0319 13.1271 35.0371 17.7188C35.0371 21.1441 34.0222 24.4928 32.1191 27.3408C30.2162 30.1887 27.5111 32.4079 24.3467 33.7188C21.1821 35.0296 17.6994 35.3733 14.3398 34.7051C10.9804 34.0368 7.8947 32.3869 5.47266 29.9648C3.05061 27.5428 1.40068 24.4571 0.732422 21.0977C0.0641741 17.7381 0.407935 14.2554 1.71875 11.0908C3.02958 7.92643 5.24877 5.22128 8.09668 3.31836C10.7666 1.53436 13.8766 0.530734 17.0771 0.412109L17.7188 0.400391ZM23.1455 4.61719C20.5543 3.54388 17.703 3.26241 14.9521 3.80957C12.2013 4.35676 9.67469 5.70812 7.69141 7.69141C5.70813 9.67469 4.35676 12.2013 3.80957 14.9521C3.26242 17.703 3.54388 20.5543 4.61719 23.1455C5.69049 25.7367 7.50789 27.9515 9.83984 29.5098C12.1719 31.068 14.914 31.9004 17.7188 31.9004C21.4785 31.8964 25.0836 30.4007 27.7422 27.7422C30.4007 25.0836 31.8964 21.4785 31.9004 17.7188C31.9004 14.914 31.068 12.1719 29.5098 9.83984C27.9515 7.50788 25.7367 5.69049 23.1455 4.61719ZM23.6621 9.71973C23.9494 9.59741 24.2666 9.56304 24.5732 9.62207C24.88 9.68121 25.1625 9.83128 25.3838 10.0518C25.605 10.2722 25.7551 10.5539 25.8154 10.8604C25.8755 11.1659 25.844 11.4824 25.7236 11.7695L21.7861 20.957C21.6275 21.3271 21.332 21.6226 20.9619 21.7812L11.7754 25.7178C11.4881 25.8401 11.1709 25.8745 10.8643 25.8154C10.5575 25.7563 10.275 25.6062 10.0537 25.3857C9.83247 25.1653 9.68237 24.8836 9.62207 24.5771C9.562 24.2716 9.5935 23.9551 9.71387 23.668L13.6514 14.4805C13.81 14.1104 14.1055 13.8149 14.4756 13.6562L23.6611 9.71875L23.6621 9.71973ZM20.375 14.5439L16.4375 16.2324L16.29 16.2949L16.2275 16.4424L14.5391 20.3799L14.1445 21.2988L15.0645 20.9053L19.002 19.2168L19.1484 19.1533L19.2119 19.0068L20.9004 15.0693L21.2939 14.1494L20.375 14.5439Z" fill="#898989" stroke="white" stroke-width="0.8"/>
</svg>
