<svg width="33" height="35" viewBox="0 0 33 35" fill="none" xmlns="http://www.w3.org/2000/svg">
<path d="M19.5176 6.75488C17.7993 5.03658 15.0132 5.03658 13.2949 6.75488L4.82617 15.2236C4.00108 16.0488 3.53711 17.1681 3.53711 18.335V26.1885C3.53713 28.6185 5.50747 30.5889 7.9375 30.5889H24.875C27.305 30.5889 29.2754 28.6185 29.2754 26.1885V18.335C29.2754 17.1681 28.8114 16.0488 27.9863 15.2236L19.5176 6.75488ZM0.400391 16.4062C0.399176 16.0279 0.472412 15.6523 0.617188 15.3027C0.761961 14.9532 0.974839 14.6358 1.24316 14.3691L14.3691 1.24316C14.9094 0.703125 15.6423 0.400395 16.4062 0.400391C17.1702 0.400391 17.9031 0.703131 18.4434 1.24316L31.5693 14.3691C31.8377 14.6358 32.0505 14.9532 32.1953 15.3027C32.3401 15.6523 32.4133 16.0279 32.4121 16.4062V32.1572C32.4121 32.5733 32.2473 32.9724 31.9531 33.2666C31.6589 33.5608 31.2598 33.7256 30.8438 33.7256H1.96875C1.5527 33.7256 1.15357 33.5608 0.859375 33.2666C0.565184 32.9724 0.4004 32.5733 0.400391 32.1572V16.4062Z" fill="#898989" stroke="white" stroke-width="0.8"/>
</svg>
