<svg width="20" height="20" viewBox="0 0 20 20" fill="none" xmlns="http://www.w3.org/2000/svg">
<path d="M10.5 0.75V3.75C10.5 3.94891 10.421 4.13968 10.2803 4.28033C10.1397 4.42098 9.94891 4.5 9.75 4.5C9.55109 4.5 9.36032 4.42098 9.21967 4.28033C9.07902 4.13968 9 3.94891 9 3.75V0.75C9 0.551088 9.07902 0.360322 9.21967 0.21967C9.36032 0.0790176 9.55109 0 9.75 0C9.94891 0 10.1397 0.0790176 10.2803 0.21967C10.421 0.360322 10.5 0.551088 10.5 0.75ZM18.75 9H15.75C15.5511 9 15.3603 9.07902 15.2197 9.21967C15.079 9.36032 15 9.55109 15 9.75C15 9.94891 15.079 10.1397 15.2197 10.2803C15.3603 10.421 15.5511 10.5 15.75 10.5H18.75C18.9489 10.5 19.1397 10.421 19.2803 10.2803C19.421 10.1397 19.5 9.94891 19.5 9.75C19.5 9.55109 19.421 9.36032 19.2803 9.21967C19.1397 9.07902 18.9489 9 18.75 9ZM14.5228 13.4625C14.381 13.3278 14.1922 13.2538 13.9966 13.2563C13.8011 13.2588 13.6142 13.3376 13.4759 13.4759C13.3376 13.6142 13.2588 13.8011 13.2563 13.9966C13.2538 14.1922 13.3278 14.381 13.4625 14.5228L15.5831 16.6444C15.7239 16.7851 15.9147 16.8642 16.1138 16.8642C16.3128 16.8642 16.5036 16.7851 16.6444 16.6444C16.7851 16.5036 16.8642 16.3128 16.8642 16.1138C16.8642 15.9147 16.7851 15.7239 16.6444 15.5831L14.5228 13.4625ZM9.75 15C9.55109 15 9.36032 15.079 9.21967 15.2197C9.07902 15.3603 9 15.5511 9 15.75V18.75C9 18.9489 9.07902 19.1397 9.21967 19.2803C9.36032 19.421 9.55109 19.5 9.75 19.5C9.94891 19.5 10.1397 19.421 10.2803 19.2803C10.421 19.1397 10.5 18.9489 10.5 18.75V15.75C10.5 15.5511 10.421 15.3603 10.2803 15.2197C10.1397 15.079 9.94891 15 9.75 15ZM4.97719 13.4625L2.85562 15.5831C2.71489 15.7239 2.63583 15.9147 2.63583 16.1138C2.63583 16.3128 2.71489 16.5036 2.85562 16.6444C2.99636 16.7851 3.18723 16.8642 3.38625 16.8642C3.58527 16.8642 3.77614 16.7851 3.91687 16.6444L6.0375 14.5228C6.17221 14.381 6.24621 14.1922 6.2437 13.9966C6.2412 13.8011 6.1624 13.6142 6.0241 13.4759C5.8858 13.3376 5.69894 13.2588 5.50337 13.2563C5.3078 13.2538 5.11898 13.3278 4.97719 13.4625ZM4.5 9.75C4.5 9.55109 4.42098 9.36032 4.28033 9.21967C4.13968 9.07902 3.94891 9 3.75 9H0.75C0.551088 9 0.360322 9.07902 0.21967 9.21967C0.0790176 9.36032 0 9.55109 0 9.75C0 9.94891 0.0790176 10.1397 0.21967 10.2803C0.360322 10.421 0.551088 10.5 0.75 10.5H3.75C3.94891 10.5 4.13968 10.421 4.28033 10.2803C4.42098 10.1397 4.5 9.94891 4.5 9.75ZM3.91687 2.85562C3.77614 2.71489 3.58527 2.63583 3.38625 2.63583C3.18723 2.63583 2.99636 2.71489 2.85562 2.85562C2.71489 2.99636 2.63583 3.18723 2.63583 3.38625C2.63583 3.58527 2.71489 3.77614 2.85562 3.91687L4.97719 6.0375C5.11898 6.17221 5.3078 6.24621 5.50337 6.2437C5.69894 6.2412 5.8858 6.1624 6.0241 6.0241C6.1624 5.8858 6.2412 5.69894 6.2437 5.50337C6.24621 5.3078 6.17221 5.11898 6.0375 4.97719L3.91687 2.85562Z" fill="#7B7B7B"/>
</svg>
