<svg width="39" height="36" viewBox="0 0 39 36" fill="none" xmlns="http://www.w3.org/2000/svg">
<path d="M13.5879 0.40625C13.8061 0.426546 14.0178 0.49256 14.209 0.599609V0.600586L18.8311 3.18262L19.0264 3.29199L19.2207 3.18262L23.8428 0.601562C24.0338 0.495097 24.2451 0.430198 24.4629 0.410156C24.6263 0.395135 24.7908 0.405625 24.9502 0.441406L25.1084 0.485352C27.2023 1.18847 29.1533 2.2587 30.8711 3.64355L31.2119 3.9248C31.3853 4.07146 31.5252 4.25415 31.6211 4.45996C31.7169 4.66571 31.7668 4.89023 31.7676 5.11719L31.7852 10.2539L31.7861 10.4854L31.9873 10.5996L36.5469 13.2002L36.5479 13.2012C36.744 13.3121 36.9137 13.464 37.0459 13.6465C37.145 13.7833 37.2219 13.9344 37.2725 14.0947L37.3145 14.2588C37.7686 16.5416 37.7695 18.8916 37.3174 21.1748C37.2736 21.3961 37.1828 21.6061 37.0508 21.7891C36.9189 21.9719 36.7488 22.1241 36.5527 22.2354H36.5518L31.9893 24.8291L31.7881 24.9434L31.7871 25.1748L31.7646 30.3174C31.7636 30.5438 31.7128 30.7674 31.6172 30.9727C31.5454 31.1267 31.4496 31.2679 31.333 31.3906L31.21 31.5068C29.5243 32.9366 27.5985 34.0539 25.5234 34.8086L25.1064 34.9551C24.8986 35.0252 24.6784 35.0505 24.46 35.0303C24.2415 35.01 24.0293 34.9451 23.8379 34.8379V34.8369L19.2217 32.2549L19.0264 32.1455L18.8311 32.2549L14.2139 34.8359C14.0229 34.9423 13.8114 35.0073 13.5938 35.0273C13.376 35.0473 13.1564 35.022 12.9492 34.9521L12.9482 34.9512C10.7149 34.2012 8.64425 33.0344 6.8457 31.5127C6.67231 31.366 6.53245 31.1834 6.43652 30.9775C6.34065 30.7717 6.29083 30.5473 6.29004 30.3203L6.27148 25.1836L6.27051 24.9521L6.06934 24.8379L1.50586 22.2373H1.50488C1.30897 22.1262 1.1388 21.9735 1.00684 21.791C0.875097 21.6087 0.784335 21.4002 0.740234 21.1797C0.315269 19.039 0.288291 16.8395 0.660156 14.6914L0.740234 14.2627C0.783978 14.0414 0.874857 13.8314 1.00684 13.6484C1.13878 13.4656 1.30878 13.3134 1.50488 13.2021H1.50586L6.05859 10.6084L6.25879 10.4932L6.25977 10.2627L6.2832 5.12012C6.28427 4.8937 6.33406 4.67008 6.42969 4.46484C6.52534 4.25956 6.66418 4.07714 6.83691 3.93066H6.83789C8.63579 2.40577 10.7065 1.23553 12.9404 0.482422H12.9414C13.1491 0.412377 13.3696 0.385996 13.5879 0.40625ZM13.126 3.75781C11.8605 4.26273 10.6671 4.93248 9.57715 5.75L9.41797 5.87012L9.41699 6.06836L9.39941 11.0439C9.39796 11.3358 9.31504 11.6218 9.16016 11.8691L9.15918 11.8701C9.06223 12.0262 8.9647 12.1874 8.87109 12.3604C8.73129 12.6104 8.52549 12.8175 8.27637 12.959L3.86621 15.4658L3.69336 15.5645L3.66699 15.7607C3.49078 17.0614 3.49074 18.38 3.66699 19.6807L3.69336 19.876L3.86523 19.9736L8.27832 22.4961L8.28027 22.4971C8.52815 22.6372 8.73292 22.8424 8.87207 23.0908C8.96457 23.257 9.06317 23.4219 9.16016 23.5791L9.16211 23.5811C9.31721 23.8287 9.40009 24.115 9.40137 24.4072L9.41895 29.3682L9.41992 29.5684L9.5791 29.6875C10.672 30.5042 11.8681 31.1733 13.1357 31.6777L13.3125 31.748L13.4785 31.6553L17.9375 29.168C18.183 29.0322 18.4607 28.965 18.7412 28.9717H19.3623C19.6306 28.9718 19.8949 29.0408 20.1289 29.1719L24.583 31.6641L24.75 31.7568L24.9268 31.6855C26.1926 31.1785 27.386 30.5064 28.4756 29.6865L28.6338 29.5674L28.6348 29.3691L28.6582 24.3936C28.6597 24.1017 28.7425 23.8157 28.8975 23.5684L28.8984 23.5674C28.9955 23.4111 29.0946 23.2489 29.1895 23.0732L29.1885 23.0723C29.3276 22.8239 29.5335 22.619 29.7812 22.4785L34.1914 19.9717L34.3633 19.873L34.3896 19.6768C34.5649 18.3736 34.5633 17.0527 34.3848 15.75L34.3584 15.5547L34.1865 15.457L29.7734 12.9414L29.7725 12.9404L29.5947 12.8232C29.4258 12.6945 29.2841 12.5324 29.1797 12.3457H29.1787C29.0864 12.1799 28.9884 12.0153 28.8916 11.8584L28.8906 11.8564L28.8359 11.7617C28.7161 11.537 28.6525 11.286 28.6514 11.0303L28.6338 6.06836L28.6328 5.86914L28.4727 5.75L28.0586 5.4502C27.0801 4.76799 26.0254 4.20118 24.916 3.75977L24.7393 3.68945L24.5732 3.78223L20.1152 6.27344C19.8696 6.40949 19.5922 6.47729 19.3115 6.4707H18.7266C18.4461 6.47816 18.1685 6.40974 17.9238 6.27246L13.4697 3.78027L13.3027 3.6875L13.126 3.75781ZM19.0254 9.58789C21.1811 9.59037 23.248 10.4475 24.7725 11.9717C26.2968 13.496 27.1546 15.563 27.1572 17.7188L27.1514 18.0195C27.0957 19.5224 26.6248 20.9827 25.7871 22.2363C24.8936 23.5735 23.6235 24.616 22.1377 25.2314C20.652 25.8468 19.0167 26.0071 17.4395 25.6934C15.8624 25.3796 14.4134 24.6058 13.2764 23.4688C12.1392 22.3316 11.3645 20.882 11.0508 19.3047C10.7372 17.7276 10.8984 16.093 11.5137 14.6074C12.1291 13.1216 13.1716 11.8515 14.5088 10.958C15.8458 10.0647 17.4174 9.58804 19.0254 9.58789ZM20.9375 13.1055C20.025 12.7275 19.0205 12.6286 18.0518 12.8213C17.0832 13.014 16.1934 13.4892 15.4951 14.1875C14.7968 14.8858 14.3206 15.7756 14.1279 16.7441C13.9352 17.7128 14.0342 18.7174 14.4121 19.6299C14.7901 20.5424 15.4307 21.3224 16.252 21.8711C17.0731 22.4197 18.0388 22.7129 19.0264 22.7129C20.3507 22.7128 21.6212 22.1865 22.5576 21.25C23.4941 20.3135 24.0195 19.0431 24.0195 17.7188C24.0195 16.7312 23.7274 15.7655 23.1787 14.9443C22.6301 14.1232 21.8498 13.4835 20.9375 13.1055Z" fill="#898989" stroke="white" stroke-width="0.8"/>
</svg>
