<svg xmlns="http://www.w3.org/2000/svg" width="554" height="78" viewBox="0 0 554 78" fill="none">
  <path d="M0 10.6603V0H62.1102V11.0783L37.3424 10.6603V61.1547H24.562V10.6603H0Z" fill="#2C2C2C"/>
  <path d="M54.854 61.1547H40.9987L62.1102 0H78.7724L99.854 61.1547H85.9987L70.6802 13.9749H70.2024L54.854 61.1547ZM53.9881 37.1168H86.7153V47.2098H53.9881V37.1168Z" fill="#2C2C2C"/>
  <path d="M121.533 61.1547H99.854V0H121.712C127.863 0 133.159 1.22432 137.598 3.67289C142.037 6.10156 145.451 9.59527 147.84 14.154C150.249 18.7127 151.453 24.1673 151.453 30.5177C151.453 36.8879 150.249 42.3624 147.84 46.941C145.451 51.5196 142.017 55.0333 137.538 57.4818C133.079 59.9304 127.744 61.1547 121.533 61.1547ZM112.784 50.0764H120.995C124.818 50.0764 128.033 49.3995 130.64 48.0459C133.268 46.6723 135.239 44.5522 136.553 41.6855C137.887 38.799 138.553 35.0764 138.553 30.5177C138.553 25.9987 137.887 22.306 136.553 19.4394C135.239 16.5727 133.278 14.4626 130.67 13.1089C128.062 11.7552 124.847 11.0783 121.025 11.0783H112.784V50.0764Z" fill="#2C2C2C"/>
  <path d="M186.599 18.4241C186.36 16.0153 185.335 14.1441 183.524 12.8103C181.712 11.4765 179.253 10.8096 176.148 10.8096C174.038 10.8096 172.256 11.1082 170.803 11.7054C169.35 12.2827 168.235 13.089 167.459 14.1242C166.702 15.1593 166.324 16.3339 166.324 17.6477C166.284 18.7426 166.513 19.6981 167.011 20.5143C167.528 21.3305 168.235 22.0372 169.131 22.6345C170.027 23.2118 171.062 23.7194 172.236 24.1573C173.411 24.5754 174.665 24.9337 175.999 25.2323L181.493 26.5462C184.161 27.1434 186.609 27.9397 188.839 28.935C191.068 29.9304 192.999 31.1547 194.632 32.6079C196.264 34.0611 197.528 35.7731 198.424 37.7439C199.34 39.7147 199.808 41.9742 199.827 44.5223C199.808 48.2648 198.852 51.5097 196.961 54.2569C195.09 56.9842 192.382 59.1043 188.839 60.6172C185.315 62.1102 181.065 62.8567 176.088 62.8567C171.151 62.8567 166.851 62.1003 163.188 60.5873C159.545 59.0744 156.699 56.8349 154.648 53.8687C152.618 50.8826 151.553 47.1899 151.453 42.7904H163.965C164.104 44.8408 164.691 46.5528 165.727 47.9264C166.782 49.2801 168.185 50.3053 169.937 51.0021C171.709 51.6789 173.709 52.0173 175.939 52.0173C178.129 52.0173 180.03 51.6988 181.642 51.0618C183.275 50.4248 184.539 49.5389 185.435 48.4042C186.33 47.2695 186.778 45.9656 186.778 44.4924C186.778 43.1189 186.37 41.9642 185.554 41.0286C184.758 40.093 183.583 39.2967 182.031 38.6397C180.498 37.9828 178.616 37.3856 176.387 36.8481L169.728 35.1759C164.572 33.9218 160.501 31.9609 157.515 29.2934C154.529 26.6258 153.046 23.0326 153.066 18.5137C153.046 14.811 154.031 11.576 156.022 8.80894C158.033 6.04185 160.79 3.88189 164.293 2.32914C167.797 0.776383 171.778 0 176.238 0C180.776 0 184.738 0.776383 188.122 2.32914C191.526 3.88189 194.174 6.04185 196.065 8.80894C197.956 11.576 198.932 14.7811 198.991 18.4241H186.599Z" fill="#2C2C2C"/>
  <path d="M248.475 20.0294C248.236 17.6206 247.211 15.7493 245.399 14.4156C243.588 13.0818 241.129 12.4149 238.024 12.4149C235.914 12.4149 234.132 12.7135 232.679 13.3107C231.226 13.888 230.111 14.6943 229.334 15.7295C228.578 16.7646 228.2 17.9391 228.2 19.253C228.16 20.3479 228.389 21.3034 228.887 22.1196C229.404 22.9358 230.111 23.6425 231.007 24.2397C231.902 24.817 232.938 25.3247 234.112 25.7626C235.287 26.1807 236.541 26.539 237.875 26.8376L243.369 28.1515C246.037 28.7487 248.485 29.545 250.715 30.5403C252.944 31.5357 254.875 32.76 256.508 34.2132C258.14 35.6664 259.404 37.3784 260.3 39.3493C261.216 41.3201 261.684 43.5795 261.703 46.1276C261.684 49.8701 260.728 53.115 258.837 55.8622C256.966 58.5895 254.258 60.7096 250.715 62.2225C247.191 63.7155 242.941 64.4621 237.964 64.4621C233.027 64.4621 228.727 63.7056 225.064 62.1926C221.421 60.6797 218.575 58.4402 216.524 55.474C214.494 52.4879 213.429 48.7952 213.329 44.3957H225.841C225.98 46.4461 226.567 48.1581 227.603 49.5317C228.658 50.8854 230.061 51.9106 231.813 52.6074C233.585 53.2842 235.585 53.6227 237.815 53.6227C240.005 53.6227 241.906 53.3041 243.518 52.6671C245.151 52.0301 246.415 51.1442 247.311 50.0095C248.206 48.8748 248.654 47.5709 248.654 46.0977C248.654 44.7242 248.246 43.5696 247.43 42.6339C246.634 41.6983 245.459 40.902 243.906 40.2451C242.374 39.5881 240.492 38.9909 238.263 38.4534L231.604 36.7812C226.448 35.5271 222.377 33.5662 219.391 30.8987C216.405 28.2311 214.922 24.6379 214.942 20.119C214.922 16.4162 215.907 13.1813 217.898 10.4142C219.908 7.64715 222.666 5.4872 226.169 3.93444C229.673 2.38169 233.654 1.6053 238.113 1.6053C242.652 1.6053 246.614 2.38169 249.998 3.93444C253.402 5.4872 256.05 7.64715 257.941 10.4142C259.832 13.1813 260.808 16.3864 260.867 20.0294H248.475Z" fill="#2C2C2C"/>
  <path d="M269.706 77.1148C268.094 77.1148 266.581 76.9854 265.167 76.7266C263.774 76.4877 262.619 76.1791 261.703 75.8009L264.57 66.3052C266.063 66.763 267.407 67.0119 268.601 67.0517C269.816 67.0915 270.861 66.8128 271.737 66.2156C272.632 65.6184 273.359 64.6031 273.916 63.1698L274.663 61.2289L261.703 26.8962H273.916L281.083 47.7319H281.561L291.146 14.0491H304.613L286.786 64.8719C285.93 67.3404 284.766 69.4903 283.293 71.3218C281.839 73.1732 279.998 74.5965 277.768 75.5919C275.539 76.6071 272.851 77.1148 269.706 77.1148Z" fill="#2C2C2C"/>
  <path d="M341.013 31.934L329.368 32.6507C329.169 31.6553 328.741 30.7595 328.084 29.9632C327.427 29.147 326.561 28.5 325.486 28.0223C324.431 27.5246 323.167 27.2758 321.693 27.2758C319.723 27.2758 318.06 27.6938 316.707 28.5299C315.353 29.3461 314.676 30.441 314.676 31.8146C314.676 32.9095 315.114 33.8351 315.99 34.5916C316.866 35.3481 318.369 35.9552 320.499 36.4131L328.8 38.0853C333.259 39.001 336.584 40.4742 338.774 42.5047C340.964 44.5352 342.058 47.2028 342.058 50.5073C342.058 53.5133 341.173 56.151 339.401 58.4204C337.649 60.6898 335.24 62.4615 332.174 63.7356C329.129 64.9897 325.615 65.6168 321.634 65.6168C315.562 65.6168 310.725 64.3527 307.121 61.8245C303.538 59.2764 301.438 55.8126 300.821 51.433L313.332 50.7761C313.711 52.6274 314.626 54.0408 316.08 55.0163C317.533 55.9718 319.394 56.4496 321.664 56.4496C323.893 56.4496 325.685 56.0216 327.038 55.1656C328.412 54.2897 329.109 53.1649 329.129 51.7913C329.109 50.6367 328.621 49.6911 327.666 48.9546C326.71 48.1981 325.237 47.6208 323.246 47.2227L315.303 45.64C310.824 44.7442 307.49 43.1915 305.3 40.9818C303.13 38.7721 302.045 35.9553 302.045 32.5312C302.045 29.585 302.841 27.0468 304.434 24.9168C306.046 22.7867 308.306 21.1444 311.212 19.9897C314.139 18.8351 317.563 18.2578 321.484 18.2578C327.277 18.2578 331.836 19.4821 335.161 21.9307C338.505 24.3793 340.456 27.7137 341.013 31.934Z" fill="#2C2C2C"/>
  <path d="M369.68 18.2578V27.8132H342.058V18.2578H369.68ZM348.329 7.26908H361.05V50.0296C361.05 51.2041 361.229 52.1198 361.587 52.7768C361.946 53.4138 362.443 53.8617 363.08 54.1205C363.737 54.3793 364.494 54.5087 365.35 54.5087C365.947 54.5087 366.544 54.4589 367.141 54.3594C367.739 54.2399 368.196 54.1503 368.515 54.0906L370.516 63.5564C369.879 63.7555 368.983 63.9845 367.828 64.2433C366.674 64.5219 365.27 64.6912 363.618 64.7509C360.552 64.8703 357.865 64.4622 355.555 63.5266C353.266 62.591 351.484 61.1377 350.21 59.1669C348.936 57.1961 348.309 54.7077 348.329 51.7018V7.26908Z" fill="#2C2C2C"/>
  <path d="M395.394 67.0517C390.676 67.0517 386.615 66.0962 383.211 64.1851C379.827 62.2541 377.219 59.5268 375.388 56.0033C373.556 52.4598 372.64 48.2693 372.64 43.4319C372.64 38.7139 373.556 34.5733 375.388 31.0099C377.219 27.4465 379.797 24.6695 383.121 22.6788C386.466 20.6881 390.388 19.6927 394.887 19.6927C397.912 19.6927 400.729 20.1804 403.337 21.1559C405.965 22.1114 408.254 23.5547 410.205 25.4857C412.176 27.4167 413.709 29.8453 414.804 32.7717C415.898 35.6781 416.446 39.0822 416.446 42.984V46.4777H377.717V38.5945H404.472C404.472 36.7631 404.074 35.1406 403.277 33.7272C402.481 32.3138 401.376 31.209 399.963 30.4127C398.569 29.5965 396.947 29.1884 395.096 29.1884C393.165 29.1884 391.453 29.6363 389.96 30.5321C388.486 31.408 387.332 32.5925 386.496 34.0856C385.66 35.5587 385.232 37.201 385.212 39.0126V46.5076C385.212 48.777 385.63 50.7378 386.466 52.3901C387.322 54.0424 388.526 55.3165 390.079 56.2123C391.632 57.1081 393.473 57.556 395.603 57.556C397.017 57.556 398.311 57.3569 399.485 56.9588C400.66 56.5607 401.665 55.9634 402.501 55.1672C403.337 54.3709 403.974 53.3954 404.412 52.2408L416.177 53.0172C415.58 55.844 414.356 58.3125 412.504 60.4226C410.673 62.5129 408.304 64.1453 405.397 65.3198C402.511 66.4744 399.177 67.0517 395.394 67.0517Z" fill="#2C2C2C"/>
  <path d="M424.238 67.0517V21.1857H436.361V29.278H436.899C437.854 26.5905 439.447 24.4704 441.677 22.9176C443.906 21.3649 446.574 20.5885 449.679 20.5885C452.824 20.5885 455.502 21.3748 457.712 22.9475C459.921 24.5003 461.395 26.6104 462.131 29.278H462.609C463.544 26.6502 465.237 24.55 467.685 22.9774C470.154 21.3848 473.07 20.5885 476.434 20.5885C480.714 20.5885 484.188 21.9522 486.856 24.6794C489.543 27.3868 490.887 31.2289 490.887 36.2056V67.0517H478.196V38.714C478.196 36.1658 477.519 34.2547 476.166 32.9807C474.812 31.7066 473.12 31.0696 471.089 31.0696C468.78 31.0696 466.978 31.8062 465.684 33.2793C464.391 34.7325 463.744 36.6536 463.744 39.0424V67.0517H451.411V38.4452C451.411 36.1957 450.764 34.404 449.47 33.0703C448.196 31.7365 446.514 31.0696 444.424 31.0696C443.01 31.0696 441.736 31.4279 440.602 32.1446C439.487 32.8414 438.601 33.8268 437.944 35.1008C437.287 36.355 436.959 37.8281 436.959 39.5202V67.0517H424.238Z" fill="#2C2C2C"/>
  <path d="M534.992 33.3689L523.346 34.0856C523.147 33.0902 522.719 32.1944 522.062 31.3981C521.405 30.5819 520.539 29.9349 519.464 29.4571C518.409 28.9595 517.145 28.7106 515.672 28.7106C513.701 28.7106 512.039 29.1287 510.685 29.9648C509.331 30.781 508.655 31.8759 508.655 33.2495C508.655 34.3443 509.092 35.27 509.968 36.0265C510.844 36.783 512.347 37.3901 514.477 37.848L522.779 39.5202C527.238 40.4359 530.562 41.909 532.752 43.9395C534.942 45.9701 536.037 48.6376 536.037 51.9422C536.037 54.9482 535.151 57.5859 533.379 59.8553C531.627 62.1247 529.219 63.8964 526.153 65.1705C523.107 66.4246 519.593 67.0517 515.612 67.0517C509.54 67.0517 504.703 65.7876 501.1 63.2594C497.516 60.7113 495.416 57.2475 494.799 52.8679L507.311 52.211C507.689 54.0623 508.605 55.4757 510.058 56.4512C511.511 57.4067 513.372 57.8845 515.642 57.8845C517.872 57.8845 519.663 57.4565 521.017 56.6005C522.39 55.7246 523.087 54.5998 523.107 53.2262C523.087 52.0716 522.599 51.126 521.644 50.3895C520.688 49.633 519.215 49.0557 517.225 48.6575L509.282 47.0749C504.802 46.1791 501.468 44.6263 499.278 42.4167C497.108 40.207 496.023 37.3901 496.023 33.9661C496.023 31.0198 496.82 28.4817 498.412 26.3516C500.025 24.2216 502.284 22.5792 505.191 21.4246C508.117 20.27 511.541 19.6927 515.463 19.6927C521.256 19.6927 525.814 20.917 529.139 23.3656C532.483 25.8141 534.434 29.1486 534.992 33.3689Z" fill="#2C2C2C"/>
  <text
    x="538"
    y="13"
    fill="#2C2C2C"
    font-family="system-ui, Segoe UI, Arial, Helvetica, sans-serif"
    font-size="17"
    font-weight="600"
  >&#174;</text>
</svg>
