<svg width="33" height="25" viewBox="0 0 33 25" fill="none" xmlns="http://www.w3.org/2000/svg">
<path d="M1.96875 21.4004H4.59375C5.00981 21.4004 5.40893 21.5652 5.70312 21.8594C5.99732 22.1536 6.16211 22.5527 6.16211 22.9688C6.16211 23.3848 5.99732 23.7839 5.70312 24.0781C5.40893 24.3723 5.00981 24.5371 4.59375 24.5371H1.96875C1.55269 24.5371 1.15357 24.3723 0.859375 24.0781C0.565178 23.7839 0.400391 23.3848 0.400391 22.9688C0.400391 22.5527 0.565178 22.1536 0.859375 21.8594C1.15357 21.5652 1.55269 21.4004 1.96875 21.4004ZM11.1562 21.4004H30.8438C31.2598 21.4004 31.6589 21.5652 31.9531 21.8594C32.2473 22.1536 32.4121 22.5527 32.4121 22.9688C32.4121 23.3848 32.2473 23.7839 31.9531 24.0781C31.6589 24.3723 31.2598 24.5371 30.8438 24.5371H11.1562C10.7402 24.5371 10.3411 24.3723 10.0469 24.0781C9.75268 23.7839 9.58789 23.3848 9.58789 22.9688C9.58789 22.5527 9.75268 22.1536 10.0469 21.8594C10.3411 21.5652 10.7402 21.4004 11.1562 21.4004ZM1.96875 10.9004H4.59375C5.00981 10.9004 5.40893 11.0652 5.70312 11.3594C5.99732 11.6536 6.16211 12.0527 6.16211 12.4688C6.16211 12.8848 5.99732 13.2839 5.70312 13.5781C5.40893 13.8723 5.00981 14.0371 4.59375 14.0371H1.96875C1.55269 14.0371 1.15357 13.8723 0.859375 13.5781C0.565177 13.2839 0.400391 12.8848 0.400391 12.4688C0.400391 12.0527 0.565177 11.6536 0.859375 11.3594C1.15357 11.0652 1.55269 10.9004 1.96875 10.9004ZM11.1562 10.9004H30.8438C31.2598 10.9004 31.6589 11.0652 31.9531 11.3594C32.2473 11.6536 32.4121 12.0527 32.4121 12.4688C32.4121 12.8848 32.2473 13.2839 31.9531 13.5781C31.6589 13.8723 31.2598 14.0371 30.8438 14.0371H11.1562C10.7402 14.0371 10.3411 13.8723 10.0469 13.5781C9.75268 13.2839 9.58789 12.8848 9.58789 12.4688C9.58789 12.0527 9.75268 11.6536 10.0469 11.3594C10.3411 11.0652 10.7402 10.9004 11.1562 10.9004ZM1.96875 0.400391H4.59375C5.00981 0.400391 5.40893 0.565177 5.70312 0.859375C5.99732 1.15357 6.16211 1.55269 6.16211 1.96875C6.16211 2.38481 5.99732 2.78393 5.70312 3.07812C5.40893 3.37232 5.00981 3.53711 4.59375 3.53711H1.96875C1.55269 3.53711 1.15357 3.37232 0.859375 3.07812C0.565177 2.78393 0.400391 2.38481 0.400391 1.96875C0.400391 1.55269 0.565177 1.15357 0.859375 0.859375C1.15357 0.565177 1.55269 0.400391 1.96875 0.400391ZM11.1562 0.400391H30.8438C31.2598 0.400391 31.6589 0.565177 31.9531 0.859375C32.2473 1.15357 32.4121 1.55269 32.4121 1.96875C32.4121 2.38481 32.2473 2.78393 31.9531 3.07812C31.6589 3.37232 31.2598 3.53711 30.8438 3.53711H11.1562C10.7402 3.53711 10.3411 3.37232 10.0469 3.07812C9.75268 2.78393 9.58789 2.38481 9.58789 1.96875C9.58789 1.55269 9.75268 1.15357 10.0469 0.859375C10.3411 0.565177 10.7402 0.400391 11.1562 0.400391Z" fill="#898989" stroke="white" stroke-width="0.8"/>
</svg>
